<?xml version="1.0" encoding="utf-8"?>
<!-- Generator: Adobe Illustrator 19.2.0, SVG Export Plug-In . SVG Version: 6.00 Build 0)  -->
<svg version="1.1" id="Layer_1" xmlns="http://www.w3.org/2000/svg" xmlns:xlink="http://www.w3.org/1999/xlink" x="0px" y="0px"
	 viewBox="0 0 48 48" enable-background="new 0 0 48 48" xml:space="preserve">
<g>
	<path fill="none" stroke="#FFFFFF" stroke-width="1.5" stroke-linecap="round" stroke-miterlimit="10" d="M41.2,8.8
		c3.6,4.1,5.8,9.4,5.8,15.3c0,12.7-10.3,23-23,23S1,36.8,1,24.1C1,12.4,9.7,2.8,21,1.3"/>
	<path fill="none" stroke="#FFFFFF" stroke-width="1.5" stroke-linecap="round" stroke-miterlimit="10" d="M39,11.4
		c2.9,3.4,4.7,7.9,4.7,12.7c0,10.8-8.8,19.7-19.7,19.7S4.3,35,4.3,24.1c0-9.8,7.2-17.9,16.5-19.4"/>
	<path fill="none" stroke="#FFFFFF" stroke-width="1.5" stroke-linejoin="round" stroke-miterlimit="10" d="M23.6,1l-0.4,22.2
		l16.3-16c0,0-2.6-2.7-7.1-4.5C27.3,0.7,23.6,1,23.6,1z"/>
	<circle fill="none" stroke="#FFFFFF" stroke-width="1.5" stroke-miterlimit="10" cx="16" cy="15.9" r="2.7"/>
	<circle fill="none" stroke="#FFFFFF" stroke-width="1.5" stroke-miterlimit="10" cx="23" cy="36.3" r="2.9"/>
	<circle fill="none" stroke="#FFFFFF" stroke-width="1.5" stroke-miterlimit="10" cx="27.7" cy="11.7" r="1.4"/>
	<circle fill="none" stroke="#FFFFFF" stroke-width="1.5" stroke-miterlimit="10" cx="13.2" cy="27" r="2"/>
	<circle fill="none" stroke="#FFFFFF" stroke-width="1.5" stroke-miterlimit="10" cx="30.3" cy="24.7" r="1.5"/>
	<circle fill="none" stroke="#FFFFFF" stroke-width="1.5" stroke-miterlimit="10" cx="33.5" cy="32.3" r="1.9"/>
	<circle fill="none" stroke="#FFFFFF" stroke-width="1.5" stroke-miterlimit="10" cx="37.7" cy="19.4" r="1.7"/>
	<path fill="none" stroke="#FFFFFF" stroke-width="1.5" stroke-miterlimit="10" d="M38.7,37.2"/>
	<path fill="none" stroke="#FFFFFF" stroke-width="1.5" stroke-miterlimit="10" d="M23.5,4.5c4.9-0.1,9.8,1.5,13.6,5"/>
</g>
</svg>
