	<?xml version="1.0" encoding="utf-8"?>
<!-- Generator: Adobe Illustrator 21.0.2, SVG Export Plug-In . SVG Version: 6.00 Build 0)  -->
<svg version="1.1" id="Layer_1" xmlns="http://www.w3.org/2000/svg" xmlns:xlink="http://www.w3.org/1999/xlink" x="0px" y="0px"
	 viewBox="0 0 48 48" style="enable-background:new 0 0 48 48;" xml:space="preserve">
<style type="text/css">
	.st0{fill:#FFF;}
</style>
<g>
	<path class="st0" d="M47.5,26.3c0-4.3-1.5-8.4-4.4-11.6c-0.3-0.3-0.7-0.3-1.1-0.1c-0.3,0.3-0.3,0.7-0.1,1.1c2.6,3,4,6.7,4,10.7
		c0,8.2-6.2,15-14.2,15.9l0.1-0.9c7.4-0.9,13.2-7.3,13.2-15c0-3.6-1.3-7-3.6-9.7c-0.3-0.3-0.7-0.4-1.1-0.1c-0.3,0.3-0.4,0.7-0.1,1.1
		c2.1,2.5,3.2,5.6,3.2,8.8c0,6.8-5,12.4-11.5,13.4l1.2-9c0.1-0.4-0.1-0.9-0.4-1.2c-0.2-0.2-0.5-0.4-0.8-0.5l1.1-6.1l8.5-8.4
		c0.3-0.3,0.3-0.8,0-1.1c-0.1-0.1-2-2.1-5.4-3.5c-3.8-1.5-6.6-1.3-6.7-1.3c-0.4,0-0.7,0.3-0.7,0.7l-0.2,10.4c-0.6,0.3-1,0.8-1.1,1.4
		l-0.1,0.6c-0.2-0.1-0.4-0.1-0.6-0.1h-1.6V21c0-1-0.7-1.8-1.6-1.9l0.4-5c1.1-0.6,2.4-1,3.7-1.2c0.4-0.1,0.7-0.5,0.6-0.9
		s-0.5-0.7-0.9-0.6c-1.2,0.2-2.3,0.5-3.3,1l0.1-1c1.1-0.4,2.3-0.8,3.6-0.9c0.4-0.1,0.7-0.4,0.6-0.8S28.1,8.9,27.7,9
		c-1.1,0.1-2.2,0.4-3.3,0.8l0.7-8.9c0-0.2-0.1-0.4-0.2-0.6c-0.1-0.2-0.3-0.2-0.6-0.2H1.2C1,0.1,0.8,0.1,0.7,0.3
		C0.6,0.5,0.5,0.7,0.5,0.9l3.4,41.1c0,0.4,0.4,0.7,0.7,0.7h6.2l0.5,4c0.1,0.8,0.7,1.3,1.5,1.3h16.9c0.8,0,1.4-0.6,1.5-1.3l0.4-2.9
		C40.5,42.9,47.5,35.4,47.5,26.3z M30.4,12.8c3,0.1,5.8,1.1,8.1,2.9L33.1,21c-0.3-0.5-0.8-0.8-1.3-0.9l-1.5-0.3L30.4,12.8z
		 M35.8,11.4c2.1,0.8,3.6,2,4.4,2.6l-0.7,0.7c-2.5-2.1-5.7-3.3-9.1-3.4l0-1.1C31.4,10.3,33.4,10.5,35.8,11.4z M28.1,27.1l0.7-3.8
		l0.3-1.8c0-0.2,0.2-0.4,0.5-0.4c0,0,0.1,0,0.1,0l1.9,0.3c0.3,0,0.4,0.3,0.4,0.5l-1.2,7h-1.8h-0.7h-0.3L28.1,27.1z M24.5,23.8
		c0-0.3,0.2-0.5,0.5-0.5h0.3h1.6c0.1,0,0.3,0.1,0.4,0.2l-1,5.5h-1h-0.7V23.8z M18.5,16.7h-1.9c-1.1,0-2,0.9-2,2v2.8c0,0,0,0-0.1,0
		h-1.9c-1.1,0-2,0.9-2,2V29c-0.3,0.1-0.7,0.2-0.9,0.5c-0.3,0.3-0.4,0.7-0.4,1.2l0.9,7.9c-2,0-3.7-0.1-4.2-0.3
		c-0.3-1.2-1.4-8.6-2.3-15.2L2.4,5.6h20.9l-1.1,13.2c0,0.1,0,0.2,0,0.3h-0.7c-0.4,0-0.7,0.1-1,0.3v-0.7
		C20.5,17.5,19.6,16.7,18.5,16.7z M18.5,23h-1.9c0,0-0.1,0-0.1,0c-0.1-0.3-0.2-0.6-0.4-0.8v-3.5c0-0.3,0.2-0.5,0.5-0.5h1.9
		c0.3,0,0.5,0.2,0.5,0.5v4.4C18.8,23,18.6,23,18.5,23z M19,25V29h-2.4h-0.4V25c0-0.2,0.2-0.4,0.4-0.5c0,0,0,0,0.1,0h1.9
		C18.7,24.5,19,24.7,19,25z M15,23.4v0.4c-0.2,0.3-0.4,0.7-0.4,1.2V29h-2.4v-5.7c0-0.3,0.2-0.5,0.5-0.5h1.9c0,0,0,0,0.1,0
		C14.8,22.9,15,23.1,15,23.4z M21,21c0-0.3,0.2-0.5,0.5-0.5h1.9c0.3,0,0.5,0.2,0.5,0.5v1.2c-0.4,0.4-0.7,0.9-0.7,1.5V29H21V21z
		 M23.6,1.6l-0.3,3.1H2.3L2.1,1.6H23.6z M5.3,41.1l-0.3-3.2c0.1,0.5,0.2,0.8,0.2,0.9c0.1,0.3,0.3,0.7,5.2,0.8l0.2,1.5H5.3z
		 M29.7,46.4H12.8l-1.3-10.9l-0.6-5h0.5h0.8h2.4H15h0.1h0.2h0.4h0.3h0.4H19h0.5h0.2h0.2h0.3h0.2H21H23h0.7h0h0.7h0h0.7H26h0.8h0.6
		h0.1h0.6h0.7h1.5h0.8h0.7l-0.3,2.2L29.7,46.4z"/>
	<path class="st0" d="M36.7,30.2c-1.6,0-2.9,1.3-2.9,2.9c0,1.6,1.3,2.9,2.9,2.9c1.6,0,2.9-1.3,2.9-2.9
		C39.6,31.5,38.3,30.2,36.7,30.2z M36.7,34.5c-0.8,0-1.4-0.6-1.4-1.4c0-0.8,0.6-1.4,1.4-1.4c0.8,0,1.4,0.6,1.4,1.4
		C38.1,33.8,37.5,34.5,36.7,34.5z"/>
	<path class="st0" d="M34.5,17.3c0-1-0.8-1.8-1.8-1.8c-1,0-1.8,0.8-1.8,1.8s0.8,1.8,1.8,1.8C33.7,19.1,34.5,18.3,34.5,17.3z
		 M32.4,17.3c0-0.1,0.1-0.3,0.3-0.3c0.1,0,0.3,0.1,0.3,0.3C33,17.6,32.4,17.6,32.4,17.3z"/>
	<path class="st0" d="M37.9,22.1c-1.1,0-2,0.9-2,2c0,1.1,0.9,2,2,2s2-0.9,2-2C39.9,23,39,22.1,37.9,22.1z M37.9,24.6
		c-0.3,0-0.5-0.2-0.5-0.5s0.2-0.5,0.5-0.5s0.5,0.2,0.5,0.5S38.2,24.6,37.9,24.6z"/>
</g>
</svg>
